<mxfile host="app.diagrams.net" modified="2024-03-04T08:48:47.873Z" agent="Mozilla/5.0 (Windows NT 10.0; Win64; x64) AppleWebKit/537.36 (KHTML, like Gecko) Chrome/122.0.0.0 Safari/537.36" version="24.0.0" etag="uVpCSxm-WI-TS_kJlLmv" type="device">
  <diagram id="IrqSVVRklDz-meM03Hj2" name="Page-1">
    <mxGraphModel dx="1050" dy="522" grid="1" gridSize="10" guides="1" tooltips="1" connect="1" arrows="1" fold="1" page="1" pageScale="1" pageWidth="850" pageHeight="1100" math="0" shadow="0">
      <root>
        <mxCell id="0" />
        <mxCell id="1" parent="0" />
        <mxCell id="-lR8HEqm5df-CkCd8OXK-1" value="" style="rounded=1;whiteSpace=wrap;html=1;fillColor=none;" vertex="1" parent="1">
          <mxGeometry x="65" y="60" width="740" height="420" as="geometry" />
        </mxCell>
        <mxCell id="-lR8HEqm5df-CkCd8OXK-3" value="" style="ellipse;html=1;shape=startState;fillColor=#000000;strokeColor=#0D0000;" vertex="1" parent="1">
          <mxGeometry x="80" y="120" width="30" height="30" as="geometry" />
        </mxCell>
        <mxCell id="-lR8HEqm5df-CkCd8OXK-4" value="" style="edgeStyle=orthogonalEdgeStyle;html=1;verticalAlign=bottom;endArrow=open;endSize=8;strokeColor=#190000;rounded=0;" edge="1" source="-lR8HEqm5df-CkCd8OXK-3" parent="1">
          <mxGeometry relative="1" as="geometry">
            <mxPoint x="160" y="135" as="targetPoint" />
          </mxGeometry>
        </mxCell>
        <mxCell id="-lR8HEqm5df-CkCd8OXK-7" value="Http Endpoint" style="rounded=1;whiteSpace=wrap;html=1;arcSize=40;fontColor=#000000;fillColor=#ffffc0;strokeColor=#000000;" vertex="1" parent="1">
          <mxGeometry x="160" y="115" width="120" height="40" as="geometry" />
        </mxCell>
        <mxCell id="-lR8HEqm5df-CkCd8OXK-14" value="&amp;lt;10000 Bytes" style="rhombus;whiteSpace=wrap;html=1;fontColor=#000000;fillColor=#ffffc0;strokeColor=#120000;" vertex="1" parent="1">
          <mxGeometry x="382.5" y="200" width="105" height="60" as="geometry" />
        </mxCell>
        <mxCell id="-lR8HEqm5df-CkCd8OXK-15" value="no" style="edgeStyle=orthogonalEdgeStyle;html=1;align=left;verticalAlign=bottom;endArrow=open;endSize=8;strokeColor=#000000;rounded=0;entryX=0.5;entryY=0;entryDx=0;entryDy=0;" edge="1" source="-lR8HEqm5df-CkCd8OXK-14" parent="1" target="-lR8HEqm5df-CkCd8OXK-20">
          <mxGeometry x="-1" relative="1" as="geometry">
            <mxPoint x="510" y="190" as="targetPoint" />
          </mxGeometry>
        </mxCell>
        <mxCell id="-lR8HEqm5df-CkCd8OXK-16" value="yes" style="edgeStyle=orthogonalEdgeStyle;html=1;align=left;verticalAlign=top;endArrow=open;endSize=8;strokeColor=#0F0000;rounded=0;exitX=0.5;exitY=1;exitDx=0;exitDy=0;entryX=0.5;entryY=0;entryDx=0;entryDy=0;" edge="1" source="-lR8HEqm5df-CkCd8OXK-14" parent="1" target="-lR8HEqm5df-CkCd8OXK-18">
          <mxGeometry x="-0.2865" relative="1" as="geometry">
            <mxPoint x="260" y="222.5" as="targetPoint" />
            <mxPoint x="150" y="317.5" as="sourcePoint" />
            <mxPoint as="offset" />
          </mxGeometry>
        </mxCell>
        <mxCell id="-lR8HEqm5df-CkCd8OXK-18" value="Discord Webhook" style="rounded=1;whiteSpace=wrap;html=1;arcSize=40;fontColor=#000000;fillColor=#ffffc0;strokeColor=#0D0000;" vertex="1" parent="1">
          <mxGeometry x="240" y="310" width="120" height="40" as="geometry" />
        </mxCell>
        <mxCell id="-lR8HEqm5df-CkCd8OXK-20" value="Has it been 90 Sec&amp;nbsp;" style="rhombus;whiteSpace=wrap;html=1;fontColor=#000000;fillColor=#ffffc0;strokeColor=#080000;" vertex="1" parent="1">
          <mxGeometry x="680" y="250" width="90" height="70" as="geometry" />
        </mxCell>
        <mxCell id="-lR8HEqm5df-CkCd8OXK-22" value="yes" style="edgeStyle=orthogonalEdgeStyle;html=1;align=left;verticalAlign=top;endArrow=open;endSize=8;strokeColor=#080000;rounded=0;exitX=0.5;exitY=1;exitDx=0;exitDy=0;" edge="1" source="-lR8HEqm5df-CkCd8OXK-20" parent="1" target="-lR8HEqm5df-CkCd8OXK-18">
          <mxGeometry x="-0.1973" relative="1" as="geometry">
            <mxPoint x="360" y="420" as="targetPoint" />
            <mxPoint x="500" y="280" as="sourcePoint" />
            <mxPoint as="offset" />
          </mxGeometry>
        </mxCell>
        <mxCell id="-lR8HEqm5df-CkCd8OXK-24" value="" style="edgeStyle=orthogonalEdgeStyle;html=1;verticalAlign=bottom;endArrow=open;endSize=8;strokeColor=#170000;rounded=0;entryX=0.5;entryY=0;entryDx=0;entryDy=0;" edge="1" parent="1" source="-lR8HEqm5df-CkCd8OXK-18" target="-lR8HEqm5df-CkCd8OXK-23">
          <mxGeometry relative="1" as="geometry">
            <mxPoint x="361" y="478" as="targetPoint" />
            <mxPoint x="360" y="390" as="sourcePoint" />
          </mxGeometry>
        </mxCell>
        <mxCell id="-lR8HEqm5df-CkCd8OXK-33" value="Discord Alert" style="edgeLabel;html=1;align=center;verticalAlign=middle;resizable=0;points=[];" vertex="1" connectable="0" parent="-lR8HEqm5df-CkCd8OXK-24">
          <mxGeometry x="0.1906" y="2" relative="1" as="geometry">
            <mxPoint x="-6" y="-13" as="offset" />
          </mxGeometry>
        </mxCell>
        <mxCell id="-lR8HEqm5df-CkCd8OXK-23" value="" style="ellipse;html=1;shape=endState;fillColor=#000000;strokeColor=#ff0000;" vertex="1" parent="1">
          <mxGeometry x="345" y="460" width="30" height="30" as="geometry" />
        </mxCell>
        <mxCell id="-lR8HEqm5df-CkCd8OXK-25" value="dispatch" style="html=1;verticalAlign=bottom;endArrow=block;curved=0;rounded=0;exitX=1;exitY=0.5;exitDx=0;exitDy=0;entryX=0;entryY=0.5;entryDx=0;entryDy=0;" edge="1" parent="1" source="-lR8HEqm5df-CkCd8OXK-7" target="-lR8HEqm5df-CkCd8OXK-31">
          <mxGeometry width="80" relative="1" as="geometry">
            <mxPoint x="380" y="240" as="sourcePoint" />
            <mxPoint x="460" y="240" as="targetPoint" />
          </mxGeometry>
        </mxCell>
        <mxCell id="-lR8HEqm5df-CkCd8OXK-26" value="No" style="html=1;verticalAlign=bottom;endArrow=block;curved=0;rounded=0;entryX=1;entryY=0.5;entryDx=0;entryDy=0;exitX=1;exitY=0.5;exitDx=0;exitDy=0;" edge="1" parent="1" source="-lR8HEqm5df-CkCd8OXK-20" target="-lR8HEqm5df-CkCd8OXK-31">
          <mxGeometry width="80" relative="1" as="geometry">
            <mxPoint x="380" y="240" as="sourcePoint" />
            <mxPoint x="460" y="240" as="targetPoint" />
            <Array as="points">
              <mxPoint x="770" y="135" />
            </Array>
          </mxGeometry>
        </mxCell>
        <mxCell id="-lR8HEqm5df-CkCd8OXK-28" value="Actor" style="shape=umlActor;verticalLabelPosition=bottom;verticalAlign=top;html=1;" vertex="1" parent="1">
          <mxGeometry x="30" y="445" width="30" height="60" as="geometry" />
        </mxCell>
        <mxCell id="-lR8HEqm5df-CkCd8OXK-29" value="" style="html=1;verticalAlign=bottom;endArrow=block;curved=0;rounded=0;exitX=0.5;exitY=0.5;exitDx=0;exitDy=0;exitPerimeter=0;entryX=0;entryY=1;entryDx=0;entryDy=0;" edge="1" parent="1" source="-lR8HEqm5df-CkCd8OXK-28" target="-lR8HEqm5df-CkCd8OXK-3">
          <mxGeometry width="80" relative="1" as="geometry">
            <mxPoint x="380" y="240" as="sourcePoint" />
            <mxPoint x="460" y="240" as="targetPoint" />
          </mxGeometry>
        </mxCell>
        <mxCell id="-lR8HEqm5df-CkCd8OXK-30" value="" style="html=1;verticalAlign=bottom;endArrow=block;curved=0;rounded=0;entryX=0;entryY=0.5;entryDx=0;entryDy=0;exitX=0.5;exitY=0.5;exitDx=0;exitDy=0;exitPerimeter=0;" edge="1" parent="1" source="-lR8HEqm5df-CkCd8OXK-28" target="-lR8HEqm5df-CkCd8OXK-23">
          <mxGeometry width="80" relative="1" as="geometry">
            <mxPoint x="40" y="410" as="sourcePoint" />
            <mxPoint x="460" y="240" as="targetPoint" />
          </mxGeometry>
        </mxCell>
        <mxCell id="-lR8HEqm5df-CkCd8OXK-31" value="Scrapper" style="rounded=1;whiteSpace=wrap;html=1;arcSize=40;fontColor=#000000;fillColor=#ffffc0;strokeColor=#0F0000;" vertex="1" parent="1">
          <mxGeometry x="375" y="115" width="120" height="40" as="geometry" />
        </mxCell>
        <mxCell id="-lR8HEqm5df-CkCd8OXK-32" value="" style="edgeStyle=orthogonalEdgeStyle;html=1;verticalAlign=bottom;endArrow=open;endSize=8;strokeColor=#0A0000;rounded=0;" edge="1" source="-lR8HEqm5df-CkCd8OXK-31" parent="1" target="-lR8HEqm5df-CkCd8OXK-14">
          <mxGeometry relative="1" as="geometry">
            <mxPoint x="435" y="220" as="targetPoint" />
          </mxGeometry>
        </mxCell>
      </root>
    </mxGraphModel>
  </diagram>
</mxfile>
